<?xml version="1.0"?><svg width="100%" height="100%" viewBox="0 0 612 140" version="1.1" xmlns="http://www.w3.org/2000/svg" xmlns:xlink="http://www.w3.org/1999/xlink" xml:space="preserve" style="fill-rule:evenodd;clip-rule:evenodd;stroke-linejoin:round;stroke-miterlimit:2;">
    <g transform="matrix(1,0,0,1,-38,-133.089)">
        <path id="Path_105" d="M313,228L639,228L621.3,272.9L296,272.9L313,228Z" style="fill:rgb(213,125,145);fill-rule:nonzero;"></path>
        <g>
            <path d="M381.3,238.3L389.1,238.3L389.1,239.3C388.6,239.5 388.2,239.7 387.7,239.8C387.3,239.9 386.8,240.1 386.4,240.2L379.3,249.6C379.9,250.4 380.6,251.2 381.3,252.2C382.1,253.2 382.9,254.2 383.7,255.2C384.5,256.2 385.4,257.3 386.3,258.3C387.2,259.3 388,260.3 388.9,261.3L390.6,262.1L390.6,263L386.2,263L385,262.2C383.6,260.6 382.2,258.8 380.9,256.9C379.5,255 378.2,253.1 376.9,251.2L375.2,251.2L375.2,261.2C376.3,261.4 377.2,261.7 377.8,262L377.8,263L368.9,263L368.9,262C369.8,261.6 370.8,261.3 371.8,261.2L371.8,240.3C370.7,240.2 369.8,239.9 368.9,239.4L368.9,238.4L377.8,238.4L377.8,239.4C377.4,239.6 377,239.7 376.6,239.9C376.2,240.1 375.7,240.2 375.2,240.3L375.2,250.1L377.3,249.6L383.9,240.3C383.4,240.2 383,240.1 382.6,239.9C382.2,239.8 381.8,239.6 381.4,239.4L381.4,238.3L381.3,238.3Z" style="fill:rgb(22,22,21);fill-rule:nonzero;"></path>
            <path d="M412.6,263.1L404.8,263.1L404.8,262.1C405.6,261.7 406.5,261.4 407.3,261.3L416.2,238L417.2,238L426.1,261.3C426.6,261.4 427,261.5 427.5,261.6C428,261.7 428.4,261.9 428.8,262.1L428.8,263.1L419.7,263.1L419.7,262.1C420.2,261.9 420.7,261.7 421.1,261.6C421.6,261.5 422.1,261.3 422.5,261.2L420.1,254.7L411.7,254.7L409.4,261.2C410.4,261.3 411.4,261.6 412.4,262L412.4,263.1L412.6,263.1ZM412.5,252.9L419.6,252.9L416.8,245.4L416.1,242.4L416,242.4L415.1,245.5L412.5,252.9Z" style="fill:rgb(22,22,21);fill-rule:nonzero;"></path>
            <path d="M450.3,261.2C450.8,261.3 451.4,261.4 451.9,261.6C452.4,261.7 452.9,261.9 453.3,262.1L453.3,263.1L444,263.1L444,262.1C444.5,261.9 445,261.7 445.5,261.6C446,261.5 446.4,261.4 446.9,261.3L446.9,240.4C446.3,240.3 445.7,240.1 445.3,240C444.8,239.8 444.4,239.7 444,239.5L444,238.5L447.1,238.5C448,238.5 449.1,238.5 450.2,238.4C451.3,238.3 452.4,238.3 453.5,238.3C454.7,238.3 455.7,238.4 456.7,238.7C457.7,239 458.6,239.4 459.3,239.9C460,240.5 460.6,241.2 461,242.1C461.4,243 461.6,244 461.6,245.2C461.6,246.9 461.1,248.3 460.2,249.5C459.3,250.7 458.1,251.4 456.5,251.9C457.5,253.5 458.6,255.1 459.7,256.7C460.8,258.3 462,259.8 463.2,261.4L465.1,262.4L465.1,263.3L460.8,263.3L459.5,262.3C458.8,261.5 458.2,260.7 457.7,259.9C457.2,259.1 456.7,258.3 456.2,257.5C455.7,256.7 455.3,255.9 454.9,255C454.5,254.2 454.1,253.3 453.6,252.3L450.3,252.3L450.3,261.2ZM452.7,239.9L451.3,239.9C450.9,239.9 450.6,240 450.3,240L450.3,250.5L452.8,250.5C454.4,250.5 455.7,250 456.7,249C457.7,248 458.1,246.6 458.1,244.9C458.1,243.2 457.6,241.9 456.6,241.1C455.6,240.3 454.3,239.9 452.7,239.9Z" style="fill:rgb(22,22,21);fill-rule:nonzero;"></path>
            <path d="M496.7,238.3L504.4,238.3L504.4,239.3C503.4,240 502.4,240.4 501.5,240.7L501.5,263.4L499.5,263.4L486.7,244L485.3,241.2L485.2,241.2L485.5,244L485.5,260.8C486.5,261.1 487.4,261.5 488.2,262L488.2,263L480.6,263L480.6,262C481,261.7 481.5,261.5 482,261.3C482.5,261.1 483,260.9 483.5,260.8L483.5,240.6C483,240.4 482.6,240.2 482.1,240C481.6,239.8 481.2,239.6 480.8,239.4L480.8,238.4L486.8,238.4L497.9,255.2L499.5,258.2L499.6,258.2L499.4,255.2L499.4,240.9C498.9,240.7 498.4,240.5 498,240.2C497.5,240 497.1,239.7 496.7,239.5L496.7,238.3Z" style="fill:rgb(22,22,21);fill-rule:nonzero;"></path>
            <path d="M537.3,238.3C537.3,239.2 537.2,240.2 537.2,241.1C537.2,242 537.1,243 536.9,244L536,244L534.6,240.1L526.9,240.1L526.9,249.5L532.7,249.5L534.1,246.9L535,246.9C535.1,249.2 535.1,251.6 535,254L534,254L532.6,251.3L526.8,251.3L526.8,261.2L534.9,261.2L536.6,257L537.5,257C537.7,258 537.8,259 537.9,260C538,261 538,262 537.9,263.1L520.5,263.1L520.5,262.1C521.3,261.7 522.3,261.4 523.4,261.3L523.4,240.4C522.9,240.3 522.4,240.2 522,240C521.5,239.8 521,239.7 520.6,239.5L520.6,238.5L537.3,238.5L537.3,238.3Z" style="fill:rgb(22,22,21);fill-rule:nonzero;"></path>
            <path d="M570.1,263.1L560.2,263.1L560.2,262.1C560.7,261.9 561.2,261.7 561.8,261.6C562.3,261.5 562.9,261.3 563.5,261.2L563.5,240.2L558.1,240.2L556.2,245.2L555.3,245.2C555.2,244.7 555.2,244.2 555.1,243.6C555.1,243 555,242.4 555,241.8C555,241.2 554.9,240.6 554.9,240L554.9,238.4L575.4,238.4L575.4,240C575.4,240.6 575.3,241.2 575.3,241.8C575.3,242.4 575.2,243 575.2,243.6C575.2,244.2 575.1,244.7 575,245.2L574.1,245.2L572.2,240.2L566.8,240.2L566.8,261.2C567.4,261.3 568,261.4 568.5,261.6C569,261.7 569.5,261.9 570,262.1L570,263.1L570.1,263.1Z" style="fill:rgb(22,22,21);fill-rule:nonzero;"></path>
        </g>
        <g>
            <g id="Group_2">
                <path id="Path_14" d="M407.6,191.9C405,193.5 401.5,194.3 397.3,194.3C390.2,194.3 383.8,191.8 380.4,186.8C377,181.9 373.8,174.8 373.8,165.6C373.8,155.1 377,147.3 380,142.4C383.1,137.5 388.3,135 393.9,135C395.1,134.9 396.3,135.2 397.3,135.8C398.3,136.6 399,137.8 399.2,139.2C399.4,140.7 399.4,142.2 399.2,143.7C399,145.4 399,147 399.1,148.7C399.2,151.3 400.2,153.8 401.8,155.8C403.2,157.6 405.4,158.5 407.6,158.5C409.6,158.6 411.6,157.9 413.1,156.5C414.6,155.1 415.3,153.1 415.2,151C415.2,148 414.2,145.1 412.5,142.7C410.5,139.9 407.8,137.6 404.6,136.2C400.6,134.4 396.2,133.6 391.8,133.7C385.9,133.6 380,135 374.7,137.8C369.6,140.5 365.3,144.5 362.3,149.5C359.2,154.6 357.7,160.8 357.7,168C357.7,175.3 359.1,181.5 361.9,186.5C364.6,191.3 368.5,195.3 373.4,197.9C378.4,200.5 383.9,201.9 389.5,201.8C395.1,201.9 400.7,200.5 405.5,197.6C409.9,194.8 413.3,190.8 415.3,185.9L414.7,185.4C412.8,187.9 410.4,190.2 407.6,191.9Z" style="fill-rule:nonzero;"></path>
            </g>
            <g id="Group_226" transform="matrix(1,0,0,1,-124,-641.811)">
                <g id="Group_177">
                    <path id="Path_999_2_" d="M463.5,791.2L464.9,791.2L480,775.9L480,774.9L470.3,774.9L463.5,791.2Z" style="fill-rule:nonzero;"></path>
                    <path id="Path_1003_2_" d="M372.8,791.2L374.2,791.2L389.3,775.9L389.3,774.9L379.6,774.9L372.8,791.2Z" style="fill-rule:nonzero;"></path>
                    <g id="Group_95" transform="matrix(1,0,0,1,124,643.199)">
                        <path id="Path_170" d="M92.3,196.4L65.7,157L65.8,156.9L84.6,138L91.3,134.6L91.3,133.1L72.6,133.1L72.6,134.6L81.8,138.1L81.6,138.3L54.3,166.2L54.3,135.6L61.9,134.4L61.9,133L38,133L38,134.4L45.6,135.6L45.6,196.3L38,197.5L38,198.8L61.9,198.8L61.9,197.5L54.3,196.3L54.3,168.4L59.6,163.1L59.7,163.3L81.6,196.3L73.9,197.5L73.9,198.8L97.7,198.8L97.7,197.4L92.3,196.4Z" style="fill-rule:nonzero;"></path>
                        <path id="Path_171" d="M119.6,199L119.6,197.8L113,197L113,165.7C114.2,163.9 115.6,162.2 117.2,160.6C118.2,159.6 119.5,159 120.9,158.9C121.9,158.9 122.8,159.2 123.6,159.8C124.3,160.4 124.7,161.3 124.6,162.2C124.6,163.1 124.3,164 123.7,164.7C124.7,165.9 126.2,166.6 127.7,166.6C130.3,166.7 132.5,164.8 132.6,162.2L132.6,161.8C132.7,160 131.8,158.3 130.3,157.4C128.7,156.3 126.8,155.8 124.9,155.8C120.6,155.8 116.7,158.2 113.3,162.8L112.9,163.3L112.9,156.5L99.3,156.5L99.3,157.7L105.1,158.5L105.1,196.8L104.9,196.8L99.5,197.6L99.5,198.9L119.6,199Z" style="fill-rule:nonzero;"></path>
                        <path id="Path_179" d="M172.6,196.5C172,195.7 171.7,194.6 171.8,193.6L171.8,169.9C171.8,160.5 166.3,155.7 155.4,155.7C151.2,155.6 147.1,156.5 143.5,158.6C140.4,160.5 138.8,163 138.8,166.1C138.7,167.5 139.2,168.9 140.1,169.9C141.1,170.8 142.4,171.2 143.7,171.1C145,171.1 146.3,170.6 147.3,169.6C148.2,168.7 148.8,167.5 148.8,166.3C147.4,165.9 146.4,164.5 146.5,163C146.4,161.3 147.2,159.8 148.5,158.7C150.2,157.5 152.3,157 154.4,157.1C156.3,157 158.1,157.4 159.9,158.1C161.3,158.8 162.4,160 162.9,161.5C163.6,163.7 164,166 163.9,168.3L163.9,174.9L158.1,174.9C152.9,174.8 147.7,175.9 143,178.2C138.7,180.3 136.6,184 136.6,189.1C136.6,192.7 137.7,195.4 139.9,197.2C142.3,199.1 145.4,200.1 148.5,199.9C151.6,199.9 154.7,199.1 157.5,197.5C160.1,196 162.2,193.7 163.5,191L163.9,190.2L163.9,191.1C164,194.1 164.8,196.4 166.5,197.8C168.3,199.2 170.5,200 172.8,199.9C174.6,200 176.4,199.4 177.8,198.3C179,197.2 179.6,195.7 179.6,194.1L178.3,194.1C178.3,195 178,195.9 177.4,196.6C176.8,197.3 175.9,197.7 175,197.6C174.1,197.6 173.2,197.2 172.6,196.5ZM163.9,185.1C163.7,187.3 163.1,189.4 161.9,191.3C160.9,192.9 159.5,194.3 157.8,195.2C154.3,197.2 149.9,197 146.7,194.6C145.2,193.3 144.5,191.1 144.5,188C144.3,184.8 145.6,181.6 147.9,179.3C150.2,177.3 153.6,176.2 158.2,176.2L164,176.2L163.9,185.1Z" style="fill-rule:nonzero;"></path>
                        <path id="Path_180" d="M222.8,196.9L203.3,171L203.5,170.9L217.3,159.6L222.5,157.7L222.5,156.4L207.4,156.4L207.4,157.7L214.9,159.7L214.6,160L195.3,175.9L195.3,133.1L181.6,133.1L181.6,134.4L187.4,135.2L187.4,196.9L187.2,196.9L181.6,197.7L181.6,198.9L200.2,198.9L200.2,197.6L195.2,196.8L195.2,177.8L197.6,175.8L197.7,176L213.5,196.8L208.4,197.7L208.4,199L227.4,199L227.4,197.7L222.8,196.9Z" style="fill-rule:nonzero;"></path>
                        <path id="Path_181" d="M259.7,158.5C253,154.8 244.9,154.8 238.2,158.5C235,160.3 232.3,163 230.5,166.2C226.7,173.4 226.7,182 230.5,189.2C232.3,192.5 234.9,195.2 238.2,197C244.9,200.7 253,200.7 259.7,197C262.9,195.2 265.6,192.5 267.4,189.2C271.2,182 271.2,173.4 267.4,166.2C265.6,163 262.9,160.3 259.7,158.5ZM261.5,181.8C261.5,186.7 260.4,190.8 258.4,193.8C256.3,196.8 253.1,198.4 249,198.4C244.9,198.4 241.7,196.9 239.6,193.8C237.5,190.8 236.5,186.8 236.5,181.8L236.5,173.5C236.5,168.6 237.6,164.5 239.6,161.6C241.7,158.6 244.9,157.1 249,157.1C253.1,157.1 256.3,158.6 258.4,161.6C260.5,164.6 261.5,168.6 261.5,173.5L261.5,181.8Z" style="fill-rule:nonzero;"></path>
                        <path id="Path_182" d="M322.4,190.7L322.2,190.2L309.6,158.8L309.9,158.8L315.7,157.8L315.7,156.5L296.6,156.5L296.6,157.8L300.8,158.6L300.8,158.7L305.7,170L305.7,170.1L298.1,190.8L297.9,190.3L285.3,158.9L289.3,157.8L289.3,156.5L271.2,156.5L271.2,157.8L276.5,158.6L276.5,158.7L294.2,200.7L296.2,200.7L306.6,172.3L306.8,172.8L318.4,200.7L320.4,200.7L335.6,159.9L335.7,159.9L340.7,158L340.7,156.7L326.7,156.7L326.7,158L333.7,160.2L322.4,190.7Z" style="fill-rule:nonzero;"></path>
                    </g>
                </g>
                <g id="Group_176" transform="matrix(1,0,0,1,8,0)">
                    <path id="Path_184" d="M549.6,842.8C547.4,842.8 545.3,842.4 543.4,841.5C541.5,840.6 539.9,839.1 538.9,837.3C537.7,834.9 537.2,832.2 537.4,829.6L537.7,807.1C537.8,806.1 537.5,805.1 537,804.2C536.4,803.6 535.7,803.1 534.8,803L533.8,802.7L533.8,801.8L549.4,798.7L550.3,799.6L549.9,812L549.9,833.1C549.8,834.6 550.4,836.2 551.5,837.2C552.7,838.1 554.1,838.6 555.6,838.5C557.1,838.5 558.6,838.3 560,837.8C561.4,837.3 562.7,836.6 563.8,835.7L564.1,807.2C564.2,806.2 564,805.2 563.5,804.4C562.9,803.7 562.1,803.3 561.2,803.2L560.3,802.9L560.3,802L575.6,798.7L576.5,799.6L576.2,812L576.2,835.7C576.1,836.7 576.3,837.7 576.7,838.7C577.2,839.5 578,840.2 579,840.4L579.9,840.7L579.9,841.6L564.6,842.5L563.8,837.3C561.9,838.9 559.8,840.2 557.6,841.3C555,842.3 552.3,842.9 549.6,842.8Z" style="fill-rule:nonzero;"></path>
                    <path id="Path_185" d="M583.6,841.5L583.6,840.6L584.6,840.3C586.6,839.8 587.9,838 587.7,835.9L587.7,789.2C587.8,788.3 587.5,787.3 587,786.5C586.4,785.8 585.5,785.3 584.6,785.1L583.5,784.8L583.5,784L599.5,780.2L600.5,781L600.2,793.2L600.2,835.8C600.2,836.8 600.4,837.8 600.9,838.6C601.5,839.4 602.3,840 603.3,840.2L604.4,840.5L604.4,841.4L583.6,841.5Z" style="fill-rule:nonzero;"></path>
                    <path id="Path_186" d="M624.9,842.8C621.2,842.8 618.3,841.9 616.2,840C614.1,838.1 613.1,835.2 613.1,831.1L613.1,801.2L607.1,801.2L607.1,800.3L609.2,800C610.8,799.7 612.4,799.1 613.9,798.3C615.3,797.5 616.6,796.4 617.8,795.2L625,787.2L625.9,787.2L625.6,799.4L635.4,799.4L635.4,801.1L625.5,801.1L625.5,832.6C625.4,834.3 625.9,835.9 626.9,837.2C627.7,838.2 629,838.8 630.3,838.8C631.4,838.8 632.6,838.5 633.5,837.9C634.5,837.2 635.5,836.4 636.3,835.4L637.2,836.3C636,838.3 634.4,839.9 632.4,841C630,842.3 627.5,842.9 624.9,842.8Z" style="fill-rule:nonzero;"></path>
                    <path id="Path_187" d="M655.1,842.8C652.9,842.8 650.8,842.4 648.9,841.5C647,840.6 645.4,839.1 644.4,837.3C643.2,834.9 642.7,832.2 642.9,829.6L643.2,807.1C643.3,806.1 643,805.1 642.5,804.2C641.9,803.6 641.2,803.1 640.3,803L639.3,802.7L639.3,801.8L654.9,798.7L655.8,799.6L655.4,812L655.4,833.1C655.3,834.6 655.9,836.2 657,837.2C658.2,838.1 659.6,838.6 661.1,838.5C662.6,838.5 664.1,838.3 665.5,837.8C666.9,837.3 668.2,836.6 669.3,835.7L669.6,807.2C669.7,806.2 669.5,805.2 669,804.4C668.4,803.7 667.6,803.3 666.7,803.2L665.8,802.9L665.8,802L681.1,798.7L682,799.6L681.7,812L681.7,835.7C681.6,836.7 681.8,837.7 682.2,838.7C682.7,839.5 683.5,840.2 684.5,840.4L685.4,840.7L685.4,841.6L670.1,842.5L669.3,837.3C667.4,838.9 665.3,840.2 663.1,841.3C660.5,842.3 657.8,842.9 655.1,842.8Z" style="fill-rule:nonzero;"></path>
                    <path id="Path_188" d="M688.8,841.5L688.8,840.6L690.1,840.3C691.1,840.1 691.9,839.5 692.5,838.7C693,837.9 693.2,836.9 693.2,836L693.2,808.7C693.3,807.7 693,806.7 692.5,805.9C691.9,805.2 691,804.7 690.1,804.6L688.8,804.3L688.8,803.4L703.8,798.3L704.7,799.2L705.5,806.7L705.5,807.4C706.3,805.7 707.4,804.2 708.7,802.9C710,801.6 711.4,800.4 713.1,799.5C714.6,798.7 716.2,798.2 717.9,798.2C719.8,798.1 721.6,798.7 723,800C724.2,801.3 724.8,802.9 724.7,804.6C724.8,806.3 724.2,808 723,809.2C721.9,810.3 720.5,810.8 718.9,810.8C716.5,810.8 714.3,809.6 712.4,807.1L712.2,806.9C711.8,806.2 711,805.7 710.2,805.5C709.4,805.5 708.6,805.9 708.1,806.6C707.5,807.1 707,807.8 706.7,808.5C706.3,809.3 705.9,810.1 705.6,811L705.6,835.4C705.6,837.7 706.6,839.2 708.7,839.8L711.5,840.6L711.5,841.5L688.8,841.5Z" style="fill-rule:nonzero;"></path>
                    <path id="Path_189" d="M747.9,798.2C751.3,798.1 754.6,798.9 757.6,800.5C760.2,802 762.3,804.2 763.8,806.8C765.3,809.6 766,812.7 765.9,815.8C765.9,816.4 765.9,817.1 765.8,817.8C765.8,818.4 765.6,819 765.5,819.6L739.5,819.6C739.6,825.9 740.7,830.4 742.9,833.2C745.1,836 748.3,837.3 752.6,837.4C755,837.5 757.5,837 759.7,836C761.6,835 763.4,833.6 764.8,831.9L765.7,832.7C764,835.8 761.5,838.4 758.5,840.2C755.2,842.1 751.5,843 747.7,842.9C743.9,843 740.1,842.1 736.7,840.2C733.5,838.4 730.9,835.8 729.2,832.6C727.3,828.9 726.4,824.8 726.5,820.7C726.4,816.4 727.5,812.2 729.6,808.5C731.6,805.3 734.4,802.6 737.7,800.9C740.7,799.1 744.3,798.2 747.9,798.2ZM747.6,799.9C746,799.9 744.5,800.4 743.3,801.4C741.8,802.9 740.9,804.8 740.5,806.8C739.7,810.4 739.4,814.1 739.4,817.8L754.3,817.8C754.9,811.5 754.6,806.9 753.6,804.1C752.9,801.5 750.4,799.8 747.6,799.9Z" style="fill-rule:nonzero;"></path>
                </g>
            </g>
        </g>
    </g>
</svg>